<svg width="500" height="500" viewBox="0 0 500 500" fill="none" xmlns="http://www.w3.org/2000/svg">
<circle cx="250" cy="250" r="250" fill="white"/>
<path d="M239.642 404V258.545H270.395V318.56H332.824V258.545H363.506V404H332.824V343.915H270.395V404H239.642Z" fill="#C26C08"/>
<path d="M146.761 301V119.182H221.867C235.48 119.182 247.228 121.845 257.112 127.172C267.055 132.439 274.72 139.808 280.106 149.278C285.492 158.688 288.185 169.638 288.185 182.126C288.185 194.673 285.433 205.652 279.928 215.062C274.483 224.414 266.7 231.664 256.58 236.813C246.459 241.962 234.444 244.537 220.536 244.537H174.193V209.913H212.368C218.997 209.913 224.531 208.759 228.969 206.451C233.468 204.143 236.871 200.917 239.179 196.774C241.487 192.572 242.641 187.689 242.641 182.126C242.641 176.503 241.487 171.65 239.179 167.566C236.871 163.423 233.468 160.227 228.969 157.978C224.471 155.729 218.938 154.604 212.368 154.604H190.706V301H146.761Z" fill="#011F35"/>
</svg>
